<mxfile host="app.diagrams.net" modified="2024-04-14T00:37:40.198Z" agent="Mozilla/5.0 (X11; Linux x86_64; rv:120.0) Gecko/20100101 Firefox/120.0" etag="jfgJ-swbvvxYiGfGS9UI" version="24.0.4" type="device">
  <diagram name="Page-1" id="7O6e-zl4Ppcilk3_SmZD">
    <mxGraphModel dx="1388" dy="820" grid="1" gridSize="10" guides="1" tooltips="1" connect="1" arrows="1" fold="1" page="1" pageScale="1" pageWidth="850" pageHeight="1100" math="0" shadow="0">
      <root>
        <mxCell id="0" />
        <mxCell id="1" parent="0" />
        <mxCell id="JT2ozS21_GiX5h-7N0zV-1" value="liblitepcie" style="rounded=1;whiteSpace=wrap;html=1;labelBackgroundColor=none;fillColor=#56517E;strokeColor=#EEEEEE;fontColor=#FFFFFF;" parent="1" vertex="1">
          <mxGeometry x="130" y="820" width="670" height="60" as="geometry" />
        </mxCell>
        <mxCell id="JT2ozS21_GiX5h-7N0zV-2" value="SPI" style="rounded=1;whiteSpace=wrap;html=1;labelBackgroundColor=none;fillColor=#56517E;strokeColor=#EEEEEE;fontColor=#FFFFFF;" parent="1" vertex="1">
          <mxGeometry x="148" y="710" width="120" height="60" as="geometry" />
        </mxCell>
        <mxCell id="JT2ozS21_GiX5h-7N0zV-3" value="I2C" style="rounded=1;whiteSpace=wrap;html=1;labelBackgroundColor=none;fillColor=#56517E;strokeColor=#EEEEEE;fontColor=#FFFFFF;" parent="1" vertex="1">
          <mxGeometry x="339" y="710" width="120" height="60" as="geometry" />
        </mxCell>
        <mxCell id="JT2ozS21_GiX5h-7N0zV-8" style="edgeStyle=orthogonalEdgeStyle;rounded=1;orthogonalLoop=1;jettySize=auto;html=1;entryX=1;entryY=0.5;entryDx=0;entryDy=0;exitX=1;exitY=0.5;exitDx=0;exitDy=0;labelBackgroundColor=none;strokeColor=#182E3E;fontColor=default;" parent="1" source="JT2ozS21_GiX5h-7N0zV-4" target="JT2ozS21_GiX5h-7N0zV-2" edge="1">
          <mxGeometry relative="1" as="geometry" />
        </mxCell>
        <mxCell id="JT2ozS21_GiX5h-7N0zV-4" value="HMCAD15xx" style="rounded=1;whiteSpace=wrap;html=1;labelBackgroundColor=none;fillColor=#56517E;strokeColor=#EEEEEE;fontColor=#FFFFFF;" parent="1" vertex="1">
          <mxGeometry x="148" y="610" width="120" height="60" as="geometry" />
        </mxCell>
        <mxCell id="JT2ozS21_GiX5h-7N0zV-9" style="edgeStyle=orthogonalEdgeStyle;rounded=1;orthogonalLoop=1;jettySize=auto;html=1;entryX=1;entryY=0.5;entryDx=0;entryDy=0;exitX=1;exitY=0.5;exitDx=0;exitDy=0;labelBackgroundColor=none;strokeColor=#182E3E;fontColor=default;" parent="1" source="JT2ozS21_GiX5h-7N0zV-5" target="JT2ozS21_GiX5h-7N0zV-2" edge="1">
          <mxGeometry relative="1" as="geometry" />
        </mxCell>
        <mxCell id="JT2ozS21_GiX5h-7N0zV-5" value="LMH6518" style="rounded=1;whiteSpace=wrap;html=1;labelBackgroundColor=none;fillColor=#56517E;strokeColor=#EEEEEE;fontColor=#FFFFFF;" parent="1" vertex="1">
          <mxGeometry x="148" y="510" width="120" height="60" as="geometry" />
        </mxCell>
        <mxCell id="JT2ozS21_GiX5h-7N0zV-7" style="edgeStyle=orthogonalEdgeStyle;rounded=1;orthogonalLoop=1;jettySize=auto;html=1;entryX=1;entryY=0.5;entryDx=0;entryDy=0;exitX=1;exitY=0.5;exitDx=0;exitDy=0;labelBackgroundColor=none;strokeColor=#182E3E;fontColor=default;" parent="1" source="JT2ozS21_GiX5h-7N0zV-6" target="JT2ozS21_GiX5h-7N0zV-3" edge="1">
          <mxGeometry relative="1" as="geometry" />
        </mxCell>
        <mxCell id="JT2ozS21_GiX5h-7N0zV-6" value="MCP443X" style="rounded=1;whiteSpace=wrap;html=1;labelBackgroundColor=none;fillColor=#56517E;strokeColor=#EEEEEE;fontColor=#FFFFFF;" parent="1" vertex="1">
          <mxGeometry x="339" y="610" width="120" height="60" as="geometry" />
        </mxCell>
        <mxCell id="JT2ozS21_GiX5h-7N0zV-11" style="edgeStyle=orthogonalEdgeStyle;rounded=1;orthogonalLoop=1;jettySize=auto;html=1;entryX=1;entryY=0.5;entryDx=0;entryDy=0;exitX=1;exitY=0.5;exitDx=0;exitDy=0;labelBackgroundColor=none;strokeColor=#182E3E;fontColor=default;" parent="1" source="JT2ozS21_GiX5h-7N0zV-10" target="JT2ozS21_GiX5h-7N0zV-3" edge="1">
          <mxGeometry relative="1" as="geometry" />
        </mxCell>
        <mxCell id="JT2ozS21_GiX5h-7N0zV-10" value="MCP4728" style="rounded=1;whiteSpace=wrap;html=1;labelBackgroundColor=none;fillColor=#56517E;strokeColor=#EEEEEE;fontColor=#FFFFFF;" parent="1" vertex="1">
          <mxGeometry x="339" y="510" width="120" height="60" as="geometry" />
        </mxCell>
        <mxCell id="JT2ozS21_GiX5h-7N0zV-13" style="edgeStyle=orthogonalEdgeStyle;rounded=1;orthogonalLoop=1;jettySize=auto;html=1;entryX=1;entryY=0.5;entryDx=0;entryDy=0;exitX=1;exitY=0.5;exitDx=0;exitDy=0;labelBackgroundColor=none;strokeColor=#182E3E;fontColor=default;" parent="1" source="JT2ozS21_GiX5h-7N0zV-12" target="JT2ozS21_GiX5h-7N0zV-3" edge="1">
          <mxGeometry relative="1" as="geometry" />
        </mxCell>
        <mxCell id="JT2ozS21_GiX5h-7N0zV-12" value="ZL3026x" style="rounded=1;whiteSpace=wrap;html=1;labelBackgroundColor=none;fillColor=#56517E;strokeColor=#EEEEEE;fontColor=#FFFFFF;" parent="1" vertex="1">
          <mxGeometry x="339" y="410" width="120" height="60" as="geometry" />
        </mxCell>
        <mxCell id="JT2ozS21_GiX5h-7N0zV-14" style="edgeStyle=orthogonalEdgeStyle;rounded=1;orthogonalLoop=1;jettySize=auto;html=1;entryX=0.401;entryY=0.033;entryDx=0;entryDy=0;entryPerimeter=0;labelBackgroundColor=none;strokeColor=#182E3E;fontColor=default;" parent="1" source="JT2ozS21_GiX5h-7N0zV-3" target="JT2ozS21_GiX5h-7N0zV-1" edge="1">
          <mxGeometry relative="1" as="geometry" />
        </mxCell>
        <mxCell id="JT2ozS21_GiX5h-7N0zV-15" style="edgeStyle=orthogonalEdgeStyle;rounded=1;orthogonalLoop=1;jettySize=auto;html=1;entryX=0.118;entryY=0;entryDx=0;entryDy=0;entryPerimeter=0;labelBackgroundColor=none;strokeColor=#182E3E;fontColor=default;" parent="1" source="JT2ozS21_GiX5h-7N0zV-2" target="JT2ozS21_GiX5h-7N0zV-1" edge="1">
          <mxGeometry relative="1" as="geometry" />
        </mxCell>
        <mxCell id="JT2ozS21_GiX5h-7N0zV-16" value="GPIO" style="rounded=1;whiteSpace=wrap;html=1;labelBackgroundColor=none;fillColor=#56517E;strokeColor=#EEEEEE;fontColor=#FFFFFF;" parent="1" vertex="1">
          <mxGeometry x="510" y="710" width="120" height="60" as="geometry" />
        </mxCell>
        <mxCell id="JT2ozS21_GiX5h-7N0zV-17" value="&lt;div&gt;Channel&lt;/div&gt;&lt;div&gt;Data Buffers&lt;/div&gt;" style="rounded=1;whiteSpace=wrap;html=1;labelBackgroundColor=none;fillColor=#56517E;strokeColor=#EEEEEE;fontColor=#FFFFFF;" parent="1" vertex="1">
          <mxGeometry x="680" y="710" width="120" height="60" as="geometry" />
        </mxCell>
        <mxCell id="Sre6_7tJgRuJXnzOGycj-4" style="edgeStyle=orthogonalEdgeStyle;rounded=1;orthogonalLoop=1;jettySize=auto;html=1;entryX=0.5;entryY=0;entryDx=0;entryDy=0;curved=0;exitX=0.25;exitY=1;exitDx=0;exitDy=0;" edge="1" parent="1" source="JT2ozS21_GiX5h-7N0zV-18" target="JT2ozS21_GiX5h-7N0zV-22">
          <mxGeometry relative="1" as="geometry">
            <mxPoint x="411" y="280" as="sourcePoint" />
            <mxPoint x="300" y="320" as="targetPoint" />
          </mxGeometry>
        </mxCell>
        <mxCell id="Sre6_7tJgRuJXnzOGycj-15" style="edgeStyle=orthogonalEdgeStyle;rounded=1;orthogonalLoop=1;jettySize=auto;html=1;entryX=0.5;entryY=0;entryDx=0;entryDy=0;curved=0;exitX=1;exitY=0.5;exitDx=0;exitDy=0;" edge="1" parent="1" source="JT2ozS21_GiX5h-7N0zV-18" target="JT2ozS21_GiX5h-7N0zV-16">
          <mxGeometry relative="1" as="geometry">
            <mxPoint x="570" y="690" as="targetPoint" />
          </mxGeometry>
        </mxCell>
        <mxCell id="JT2ozS21_GiX5h-7N0zV-18" value="Channel" style="rounded=1;whiteSpace=wrap;html=1;labelBackgroundColor=none;fillColor=#56517E;strokeColor=#EEEEEE;fontColor=#FFFFFF;" parent="1" vertex="1">
          <mxGeometry x="120" y="210" width="520" height="60" as="geometry" />
        </mxCell>
        <mxCell id="JT2ozS21_GiX5h-7N0zV-19" style="edgeStyle=orthogonalEdgeStyle;rounded=1;orthogonalLoop=1;jettySize=auto;html=1;entryX=0.658;entryY=0.017;entryDx=0;entryDy=0;entryPerimeter=0;labelBackgroundColor=none;strokeColor=#182E3E;fontColor=default;" parent="1" source="JT2ozS21_GiX5h-7N0zV-16" target="JT2ozS21_GiX5h-7N0zV-1" edge="1">
          <mxGeometry relative="1" as="geometry" />
        </mxCell>
        <mxCell id="JT2ozS21_GiX5h-7N0zV-20" style="edgeStyle=orthogonalEdgeStyle;rounded=1;orthogonalLoop=1;jettySize=auto;html=1;entryX=0.91;entryY=0.017;entryDx=0;entryDy=0;entryPerimeter=0;labelBackgroundColor=none;strokeColor=#182E3E;fontColor=default;" parent="1" source="JT2ozS21_GiX5h-7N0zV-17" target="JT2ozS21_GiX5h-7N0zV-1" edge="1">
          <mxGeometry relative="1" as="geometry" />
        </mxCell>
        <mxCell id="JT2ozS21_GiX5h-7N0zV-22" value="ADC" style="rounded=1;whiteSpace=wrap;html=1;strokeColor=#EEEEEE;fontColor=#FFFFFF;fillColor=#56517E;" parent="1" vertex="1">
          <mxGeometry x="148" y="310" width="120" height="60" as="geometry" />
        </mxCell>
        <mxCell id="Sre6_7tJgRuJXnzOGycj-6" style="edgeStyle=orthogonalEdgeStyle;rounded=1;orthogonalLoop=1;jettySize=auto;html=1;entryX=0.5;entryY=0;entryDx=0;entryDy=0;strokeColor=default;align=center;verticalAlign=middle;fontFamily=Helvetica;fontSize=11;fontColor=default;labelBackgroundColor=default;endArrow=classic;curved=0;" edge="1" parent="1" source="JT2ozS21_GiX5h-7N0zV-23" target="JT2ozS21_GiX5h-7N0zV-5">
          <mxGeometry relative="1" as="geometry">
            <Array as="points">
              <mxPoint x="310" y="340" />
              <mxPoint x="310" y="400" />
              <mxPoint x="208" y="400" />
            </Array>
          </mxGeometry>
        </mxCell>
        <mxCell id="Sre6_7tJgRuJXnzOGycj-8" style="edgeStyle=orthogonalEdgeStyle;rounded=1;orthogonalLoop=1;jettySize=auto;html=1;entryX=0;entryY=0.5;entryDx=0;entryDy=0;exitX=0;exitY=0.5;exitDx=0;exitDy=0;curved=0;" edge="1" parent="1" source="JT2ozS21_GiX5h-7N0zV-23" target="JT2ozS21_GiX5h-7N0zV-10">
          <mxGeometry relative="1" as="geometry">
            <Array as="points">
              <mxPoint x="310" y="340" />
              <mxPoint x="310" y="540" />
            </Array>
          </mxGeometry>
        </mxCell>
        <mxCell id="JT2ozS21_GiX5h-7N0zV-23" value="AFE" style="rounded=1;whiteSpace=wrap;html=1;strokeColor=#EEEEEE;fontColor=#FFFFFF;fillColor=#56517E;" parent="1" vertex="1">
          <mxGeometry x="339" y="310" width="120" height="60" as="geometry" />
        </mxCell>
        <mxCell id="Sre6_7tJgRuJXnzOGycj-12" style="edgeStyle=orthogonalEdgeStyle;rounded=1;orthogonalLoop=1;jettySize=auto;html=1;entryX=0.5;entryY=0;entryDx=0;entryDy=0;curved=0;" edge="1" parent="1" source="JT2ozS21_GiX5h-7N0zV-24" target="JT2ozS21_GiX5h-7N0zV-18">
          <mxGeometry relative="1" as="geometry" />
        </mxCell>
        <mxCell id="Sre6_7tJgRuJXnzOGycj-13" style="edgeStyle=orthogonalEdgeStyle;rounded=1;orthogonalLoop=1;jettySize=auto;html=1;entryX=0.5;entryY=0;entryDx=0;entryDy=0;curved=0;" edge="1" parent="1" source="JT2ozS21_GiX5h-7N0zV-24" target="JT2ozS21_GiX5h-7N0zV-17">
          <mxGeometry relative="1" as="geometry">
            <Array as="points">
              <mxPoint x="440" y="180" />
              <mxPoint x="740" y="180" />
            </Array>
          </mxGeometry>
        </mxCell>
        <mxCell id="JT2ozS21_GiX5h-7N0zV-24" value="Thunderscope" style="rounded=1;whiteSpace=wrap;html=1;strokeColor=#EEEEEE;fontColor=#FFFFFF;fillColor=#56517E;" parent="1" vertex="1">
          <mxGeometry x="80" y="90" width="720" height="60" as="geometry" />
        </mxCell>
        <mxCell id="Sre6_7tJgRuJXnzOGycj-1" value="" style="endArrow=classic;html=1;rounded=1;exitX=0;exitY=0.5;exitDx=0;exitDy=0;entryX=0;entryY=0.5;entryDx=0;entryDy=0;curved=0;strokeColor=none;" edge="1" parent="1" source="JT2ozS21_GiX5h-7N0zV-22" target="JT2ozS21_GiX5h-7N0zV-4">
          <mxGeometry width="50" height="50" relative="1" as="geometry">
            <mxPoint x="30" y="510" as="sourcePoint" />
            <mxPoint x="80" y="460" as="targetPoint" />
            <Array as="points">
              <mxPoint x="100" y="340" />
              <mxPoint x="100" y="640" />
            </Array>
          </mxGeometry>
        </mxCell>
        <mxCell id="Sre6_7tJgRuJXnzOGycj-2" value="" style="endArrow=classic;html=1;rounded=1;exitX=0;exitY=0.5;exitDx=0;exitDy=0;curved=0;entryX=0;entryY=0.5;entryDx=0;entryDy=0;" edge="1" parent="1" source="JT2ozS21_GiX5h-7N0zV-22" target="JT2ozS21_GiX5h-7N0zV-4">
          <mxGeometry width="50" height="50" relative="1" as="geometry">
            <mxPoint x="70" y="460" as="sourcePoint" />
            <mxPoint x="120" y="410" as="targetPoint" />
            <Array as="points">
              <mxPoint x="100" y="340" />
              <mxPoint x="100" y="640" />
            </Array>
          </mxGeometry>
        </mxCell>
        <mxCell id="Sre6_7tJgRuJXnzOGycj-5" style="edgeStyle=orthogonalEdgeStyle;rounded=1;orthogonalLoop=1;jettySize=auto;html=1;entryX=0.5;entryY=0;entryDx=0;entryDy=0;curved=0;exitX=0.733;exitY=1.033;exitDx=0;exitDy=0;exitPerimeter=0;" edge="1" parent="1" source="JT2ozS21_GiX5h-7N0zV-18" target="JT2ozS21_GiX5h-7N0zV-23">
          <mxGeometry relative="1" as="geometry">
            <mxPoint x="421" y="290" as="sourcePoint" />
            <mxPoint x="310" y="330" as="targetPoint" />
          </mxGeometry>
        </mxCell>
        <mxCell id="Sre6_7tJgRuJXnzOGycj-9" style="edgeStyle=orthogonalEdgeStyle;rounded=1;orthogonalLoop=1;jettySize=auto;html=1;entryX=0;entryY=0.5;entryDx=0;entryDy=0;exitX=0;exitY=0.5;exitDx=0;exitDy=0;curved=0;" edge="1" parent="1" source="JT2ozS21_GiX5h-7N0zV-23" target="JT2ozS21_GiX5h-7N0zV-6">
          <mxGeometry relative="1" as="geometry">
            <mxPoint x="349" y="350" as="sourcePoint" />
            <mxPoint x="349" y="550" as="targetPoint" />
            <Array as="points">
              <mxPoint x="310" y="340" />
              <mxPoint x="310" y="640" />
            </Array>
          </mxGeometry>
        </mxCell>
        <mxCell id="Sre6_7tJgRuJXnzOGycj-11" style="edgeStyle=orthogonalEdgeStyle;rounded=1;orthogonalLoop=1;jettySize=auto;html=1;entryX=0;entryY=0.5;entryDx=0;entryDy=0;exitX=0;exitY=0.5;exitDx=0;exitDy=0;curved=0;" edge="1" parent="1" source="JT2ozS21_GiX5h-7N0zV-22" target="JT2ozS21_GiX5h-7N0zV-12">
          <mxGeometry relative="1" as="geometry">
            <mxPoint x="349" y="350" as="sourcePoint" />
            <mxPoint x="349" y="650" as="targetPoint" />
            <Array as="points">
              <mxPoint x="100" y="340" />
              <mxPoint x="100" y="440" />
            </Array>
          </mxGeometry>
        </mxCell>
      </root>
    </mxGraphModel>
  </diagram>
</mxfile>
